<svg width="14" height="20" viewBox="0 0 14 20" fill="none" xmlns="http://www.w3.org/2000/svg">
<path d="M8.74998 0C4.77192 2.4558 5.24998 9.37499 5.24998 9.37499C5.24998 9.37499 3.5 8.74998 3.5 5.93751C1.41214 7.23465 0 9.72785 0 12.5C0 16.6421 3.134 20 7 20C10.866 20 14 16.6421 14 12.5C14 6.40626 8.74998 5.15624 8.74998 0ZM7.61487 17.4157C6.20824 17.7915 4.78358 16.8744 4.4328 15.3672C4.0821 13.8601 4.93808 12.3336 6.34479 11.9578C9.74082 11.0506 10.1664 9.00446 10.1664 9.00446C10.1664 9.00446 11.8599 16.2817 7.61487 17.4157Z" fill="white"/>
</svg>
