<svg width="16" height="16" viewBox="0 0 16 16" fill="none" xmlns="http://www.w3.org/2000/svg">
<path d="M15.4414 1.52546C15.0321 1.04801 14.4865 0.775155 13.8726 0.843385H2.07247C0.844709 0.843385 -0.178423 2.00295 0.0262036 3.2307L1.66322 13.462C1.79964 14.4852 2.68635 15.1672 3.70948 15.1672H12.3038C13.3269 15.1672 14.2136 14.4169 14.3501 13.462L15.9871 3.2307C16.0553 2.61682 15.8506 2.00295 15.4414 1.52546ZM9.43902 9.71052C9.23439 9.50589 9.02977 9.36947 8.75694 9.30127L9.30262 6.57293L7.93844 6.3001L7.32456 9.23307C7.05173 9.30127 6.77888 9.50589 6.50605 9.71052L3.0956 6.3683C5.75574 3.70816 10.0529 3.70816 12.713 6.3683L9.43902 9.71052Z" fill="white"/>
</svg>
